<svg width="800px" height="800px" viewBox="0 0 24 24" xmlns="http://www.w3.org/2000/svg">

  <g id="html">
    <path fill-rule="evennode" clip-rule="evennode" d="M3 1.5C2.86193 1.5 2.75 1.61193 2.75 1.75V11.3003C2.75 11.3896 2.79769 11.4722 2.87509 11.5168L7.73381 14.3194C7.80942 14.363 7.90231 14.364 7.97886 14.3221L13.1201 11.5048C13.2002 11.4609 13.25 11.3769 13.25 11.2856V1.75C13.25 1.61193 13.1381 1.5 13 1.5H3ZM1.25 1.75C1.25 0.783502 2.0335 0 3 0H13C13.9665 0 14.75 0.783503 14.75 1.75V11.2856C14.75 11.9248 14.4015 12.5131 13.841 12.8203L8.69968 15.6375C8.16383 15.9311 7.51363 15.924 6.98434 15.6187L2.12562 12.8162C1.58382 12.5037 1.25 11.9258 1.25 11.3003V1.75ZM5 4.25C5 3.83579 5.33579 3.5 5.75 3.5H10.3654C10.7796 3.5 11.1154 3.83579 11.1154 4.25C11.1154 4.66421 10.7796 5 10.3654 5H6.5V6.71154H10.3654C10.7796 6.71154 11.1154 7.04732 11.1154 7.46154V10.3462C11.1154 10.6302 10.9549 10.8899 10.7008 11.017L8.3931 12.1708C8.18196 12.2764 7.93343 12.2764 7.72228 12.1708L5.41459 11.017C5.1605 10.8899 5 10.6302 5 10.3462V9.76923C5 9.35502 5.33579 9.01923 5.75 9.01923C6.16421 9.01923 6.5 9.35502 6.5 9.76923V9.88263L8.05769 10.6615L9.61539 9.88263V8.21154H5.75C5.33579 8.21154 5 7.87575 5 7.46154V4.25Z" />
  </g>

  <g id="typeScript">
    <path fill-rule="nonzero" clip-rule="nonzero" d="M0 1.75C0 0.783501 0.783502 0 1.75 0H14.25C15.2165 0 16 0.783502 16 1.75V3.75C16 4.16421 15.6642 4.5 15.25 4.5C14.8358 4.5 14.5 4.16421 14.5 3.75V1.75C14.5 1.61193 14.3881 1.5 14.25 1.5H1.75C1.61193 1.5 1.5 1.61193 1.5 1.75V14.25C1.5 14.3881 1.61193 14.5 1.75 14.5H15.25C15.6642 14.5 16 14.8358 16 15.25C16 15.6642 15.6642 16 15.25 16H1.75C0.783501 16 0 15.2165 0 14.25V1.75ZM4.75 6.5C4.75 6.08579 5.08579 5.75 5.5 5.75H9.25C9.66421 5.75 10 6.08579 10 6.5C10 6.91421 9.66421 7.25 9.25 7.25H8.25V12.5C8.25 12.9142 7.91421 13.25 7.5 13.25C7.08579 13.25 6.75 12.9142 6.75 12.5V7.25H5.5C5.08579 7.25 4.75 6.91421 4.75 6.5ZM11.2757 6.58011C11.6944 6.08164 12.3507 5.75 13.25 5.75C14.0849 5.75 14.7148 6.03567 15.1394 6.48481C15.4239 6.78583 15.4105 7.26052 15.1095 7.54505C14.8085 7.82958 14.3338 7.81621 14.0493 7.51519C13.9394 7.39898 13.7204 7.25 13.25 7.25C12.7493 7.25 12.5306 7.41836 12.4243 7.54489C12.2934 7.70065 12.25 7.896 12.25 8C12.25 8.104 12.2934 8.29935 12.4243 8.45511C12.5306 8.58164 12.7493 8.75 13.25 8.75C13.3257 8.75 13.3988 8.76121 13.4676 8.78207C14.1307 8.87646 14.6319 9.17251 14.9743 9.58011C15.3684 10.0493 15.5 10.604 15.5 11C15.5 11.396 15.3684 11.9507 14.9743 12.4199C14.5556 12.9184 13.8993 13.25 13 13.25C12.1651 13.25 11.5352 12.9643 11.1106 12.5152C10.8261 12.2142 10.8395 11.7395 11.1405 11.4549C11.4415 11.1704 11.9162 11.1838 12.2007 11.4848C12.3106 11.601 12.5296 11.75 13 11.75C13.5007 11.75 13.7194 11.5816 13.8257 11.4551C13.9566 11.2993 14 11.104 14 11C14 10.896 13.9566 10.7007 13.8257 10.5449C13.7194 10.4184 13.5007 10.25 13 10.25C12.9243 10.25 12.8512 10.2388 12.7824 10.2179C12.1193 10.1235 11.6181 9.82749 11.2757 9.41989C10.8816 8.95065 10.75 8.396 10.75 8C10.75 7.604 10.8816 7.04935 11.2757 6.58011Z" />
  </g>

  <g id="css">
    <path fill-rule="nonzero" clip-rule="nonzero" d="M3 1.60001C2.86193 1.60001 2.75 1.71193 2.75 1.85001V11.4003C2.75 11.4896 2.79769 11.5722 2.87509 11.6168L7.73381 14.4194C7.80942 14.463 7.90231 14.464 7.97886 14.4221L13.1201 11.6048C13.2002 11.5609 13.25 11.4769 13.25 11.3856V1.85001C13.25 1.71193 13.1381 1.60001 13 1.60001H3ZM1.25 1.85001C1.25 0.883508 2.0335 0.100006 3 0.100006H13C13.9665 0.100006 14.75 0.883509 14.75 1.85001V11.3856C14.75 12.0248 14.4015 12.6131 13.841 12.9203L8.69968 15.7375C8.16383 16.0311 7.51363 16.024 6.98434 15.7187L2.12562 12.9162C1.58382 12.6037 1.25 12.0258 1.25 11.4003V1.85001ZM5 4.35001C5 3.93579 5.33579 3.60001 5.75 3.60001H10.3654C10.7796 3.60001 11.1154 3.93579 11.1154 4.35001V10.4462C11.1154 10.7302 10.9549 10.9899 10.7008 11.117L8.3931 12.2708C8.18196 12.3764 7.93343 12.3764 7.72228 12.2708L5.41459 11.117C5.1605 10.9899 5 10.7302 5 10.4462V9.86924C5 9.45502 5.33579 9.11924 5.75 9.11924C6.16421 9.11924 6.5 9.45502 6.5 9.86924V9.98263L8.05769 10.7615L9.61539 9.98263V8.31154H7C6.58579 8.31154 6.25 7.97576 6.25 7.56154C6.25 7.14733 6.58579 6.81154 7 6.81154H9.61539V5.10001H5.75C5.33579 5.10001 5 4.76422 5 4.35001Z" />
  </g>

  <g id="react">
    <path fill-rule="nonzero" clip-rule="nonzero" d="M4.84989 2.37195C4.59895 2.51683 4.33488 2.91636 4.30424 3.78785C4.28968 4.20181 3.9423 4.52559 3.52835 4.51103C3.11439 4.49647 2.79061 4.1491 2.80516 3.73514C2.84273 2.66673 3.1806 1.60366 4.09989 1.07291C5.02179 0.540653 6.11484 0.782356 7.06128 1.28727C7.42674 1.48224 7.56495 1.93656 7.36998 2.30201C7.17501 2.66747 6.72069 2.80568 6.35524 2.61072C5.5818 2.1981 5.10158 2.22663 4.84989 2.37195ZM8.87139 3.67284C9.19036 3.40858 9.66315 3.45293 9.92741 3.7719C10.4818 4.44103 11.0136 5.20405 11.4963 6.04018C12.5366 7.84191 13.178 9.68785 13.3509 11.2362C13.4372 12.0091 13.4108 12.7446 13.2303 13.3754C13.0484 14.011 12.6941 14.5863 12.0999 14.9293C11.381 15.3444 10.5509 15.2855 9.79114 15.0089C9.02868 14.7313 8.24395 14.2056 7.49586 13.5228C7.18993 13.2435 7.16831 12.7691 7.44756 12.4632C7.72681 12.1573 8.20119 12.1356 8.50712 12.4149C9.16624 13.0165 9.78567 13.4105 10.3043 13.5994C10.8257 13.7892 11.1537 13.7436 11.3499 13.6303C11.5143 13.5354 11.6797 13.342 11.7882 12.9627C11.8981 12.5787 11.9328 12.0529 11.8602 11.4026C11.7152 10.1045 11.1591 8.45607 10.1973 6.79018C9.75492 6.02396 9.27081 5.33055 8.77232 4.72886C8.50807 4.40989 8.55242 3.93709 8.87139 3.67284Z" />
    <path fill-rule="nonzero" clip-rule="nonzero" d="M14.5 8.20557C14.5 7.91581 14.286 7.48735 13.5466 7.02507C13.1954 6.80549 13.0887 6.34276 13.3083 5.99154C13.5279 5.64032 13.9906 5.53361 14.3418 5.75319C15.2483 6.31993 16 7.14407 16 8.20557C16 9.27009 15.2442 10.0958 14.3337 10.663C13.9821 10.882 13.5195 10.7746 13.3005 10.423C13.0815 10.0714 13.189 9.60887 13.5405 9.38985C14.2846 8.92635 14.5 8.4962 14.5 8.20557ZM11.3626 11.0378C11.432 11.4462 11.1572 11.8335 10.7488 11.9029C9.89219 12.0484 8.96547 12.1274 8 12.1274C5.91954 12.1274 4.00018 11.76 2.57286 11.1355C1.86032 10.8238 1.23659 10.4332 0.780529 9.9615C0.320977 9.48616 0 8.89166 0 8.20557C0 7.37549 0.466082 6.68599 1.08548 6.16636C1.70712 5.64485 2.55471 5.22808 3.52013 4.92164C3.91494 4.79633 4.33657 5.01479 4.46189 5.40959C4.5872 5.80439 4.36874 6.22603 3.97394 6.35135C3.12334 6.62134 2.4724 6.96078 2.04954 7.31553C1.62442 7.67217 1.5 7.97899 1.5 8.20557C1.5 8.39536 1.58476 8.6353 1.85895 8.91891C2.13663 9.20613 2.57464 9.49905 3.17409 9.76131C4.37076 10.2848 6.07639 10.6274 8 10.6274C8.88475 10.6274 9.72732 10.5549 10.4976 10.424C10.906 10.3547 11.2933 10.6295 11.3626 11.0378Z" />
    <path fill-rule="nonzero" clip-rule="nonzero" d="M4.87192 13.6303C5.12286 13.7752 5.6009 13.8041 6.37095 13.3949C6.73673 13.2005 7.19082 13.3395 7.38519 13.7052C7.57957 14.071 7.44062 14.5251 7.07484 14.7195C6.13079 15.2211 5.04121 15.4601 4.12192 14.9293C3.20003 14.3971 2.86282 13.3296 2.82687 12.2575C2.81299 11.8435 3.13733 11.4967 3.55131 11.4828C3.96529 11.4689 4.31215 11.7932 4.32603 12.2072C4.35541 13.0834 4.62023 13.485 4.87192 13.6303ZM3.98778 9.49712C3.59944 9.35301 3.40145 8.92138 3.54556 8.53304C3.84786 7.71839 4.24274 6.8763 4.72548 6.04018C5.76571 4.23845 7.04361 2.75996 8.29806 1.83609C8.92431 1.37487 9.57441 1.02999 10.211 0.870901C10.8524 0.71059 11.5278 0.729863 12.1219 1.07291C12.8408 1.48795 13.2049 2.23634 13.3452 3.03257C13.486 3.83168 13.4232 4.77409 13.2058 5.7634C13.1169 6.16796 12.7169 6.42388 12.3124 6.33501C11.9078 6.24613 11.6519 5.84612 11.7408 5.44155C11.9322 4.56992 11.9637 3.83647 11.868 3.29288C11.7717 2.7464 11.5681 2.48524 11.3719 2.37195C11.2076 2.27705 10.9574 2.23049 10.5747 2.32614C10.1871 2.42301 9.71442 2.65588 9.18757 3.04388C8.13584 3.81846 6.98632 5.12428 6.02452 6.79018C5.58214 7.55639 5.22369 8.32235 4.95185 9.0549C4.80774 9.44323 4.37611 9.64122 3.98778 9.49712Z" />
    <path d="M9.45925 8.06618C9.45925 8.81694 8.85063 9.42556 8.09987 9.42556C7.34911 9.42556 6.7405 8.81694 6.7405 8.06618C6.7405 7.31542 7.34911 6.70681 8.09987 6.70681C8.85063 6.70681 9.45925 7.31542 9.45925 8.06618Z" />
  </g>
  
  <g id="javaScript">
    <path fill-rule="nonzero" clip-rule="nonzero" d="M0 1.75C0 0.783501 0.783502 0 1.75 0H14.25C15.2165 0 16 0.783502 16 1.75V3.75C16 4.16421 15.6642 4.5 15.25 4.5C14.8358 4.5 14.5 4.16421 14.5 3.75V1.75C14.5 1.61193 14.3881 1.5 14.25 1.5H1.75C1.61193 1.5 1.5 1.61193 1.5 1.75V14.25C1.5 14.3881 1.61193 14.5 1.75 14.5H15.25C15.6642 14.5 16 14.8358 16 15.25C16 15.6642 15.6642 16 15.25 16H1.75C0.783501 16 0 15.2165 0 14.25V1.75ZM8.25 5.75C8.66421 5.75 9 6.08579 9 6.5V10.5C9 11.5048 8.72399 12.2584 8.15514 12.7324C7.61223 13.1848 6.95384 13.25 6.5 13.25C6.08579 13.25 5.75 12.9142 5.75 12.5C5.75 12.0858 6.08579 11.75 6.5 11.75C6.84617 11.75 7.06277 11.6902 7.19486 11.5801C7.301 11.4916 7.5 11.2452 7.5 10.5V6.5C7.5 6.08579 7.83578 5.75 8.25 5.75ZM11.2757 6.58011C11.6944 6.08164 12.3507 5.75 13.25 5.75C14.0849 5.75 14.7148 6.03567 15.1394 6.48481C15.4239 6.78583 15.4105 7.26052 15.1095 7.54505C14.8085 7.82958 14.3338 7.81621 14.0493 7.51519C13.9394 7.39898 13.7204 7.25 13.25 7.25C12.7493 7.25 12.5306 7.41836 12.4243 7.54489C12.2934 7.70065 12.25 7.896 12.25 8C12.25 8.104 12.2934 8.29935 12.4243 8.45511C12.5306 8.58164 12.7493 8.75 13.25 8.75C13.3257 8.75 13.3988 8.76121 13.4676 8.78207C14.1307 8.87646 14.6319 9.17251 14.9743 9.58011C15.3684 10.0493 15.5 10.604 15.5 11C15.5 11.396 15.3684 11.9507 14.9743 12.4199C14.5556 12.9184 13.8993 13.25 13 13.25C12.1651 13.25 11.5352 12.9643 11.1106 12.5152C10.8261 12.2142 10.8395 11.7395 11.1405 11.4549C11.4415 11.1704 11.9162 11.1838 12.2007 11.4848C12.3106 11.601 12.5296 11.75 13 11.75C13.5007 11.75 13.7194 11.5816 13.8257 11.4551C13.9566 11.2993 14 11.104 14 11C14 10.896 13.9566 10.7007 13.8257 10.5449C13.7194 10.4184 13.5007 10.25 13 10.25C12.9243 10.25 12.8512 10.2388 12.7824 10.2179C12.1193 10.1235 11.6181 9.82749 11.2757 9.41989C10.8816 8.95065 10.75 8.396 10.75 8C10.75 7.604 10.8816 7.04935 11.2757 6.58011Z" />
  </g>

  <g id="git">
    <path fill-rule="evenodd" clip-rule="evenodd" d="M3.36066 4.98361H4.93443V7.86885H8.60656V9.44262H4.93443V13.1148H8.60656V14.6885H4.14754C3.71296 14.6885 3.36066 14.3362 3.36066 13.9016V4.98361Z" />
    <path fill-rule="evenodd" clip-rule="evenodd" d="M1 1.83607C1 0.822034 1.82203 0 2.83607 0H10.7049C11.7189 0 12.541 0.822034 12.541 1.83607V3.67213C12.541 4.68616 11.7189 5.5082 10.7049 5.5082H2.83607C1.82203 5.5082 1 4.68616 1 3.67213V1.83607ZM2.83607 1.57377C2.6912 1.57377 2.57377 1.6912 2.57377 1.83607V3.67213C2.57377 3.81699 2.6912 3.93443 2.83607 3.93443H10.7049C10.8498 3.93443 10.9672 3.81699 10.9672 3.67213V1.83607C10.9672 1.6912 10.8498 1.57377 10.7049 1.57377H2.83607Z" />
    <path fill-rule="evenodd" clip-rule="evenodd" d="M7.81967 8.39344C7.81967 7.37941 8.64171 6.55738 9.65574 6.55738H12.2787C13.2927 6.55738 14.1148 7.37941 14.1148 8.39344V8.91803C14.1148 9.93206 13.2927 10.7541 12.2787 10.7541H9.65574C8.64171 10.7541 7.81967 9.93206 7.81967 8.91803V8.39344ZM9.65574 8.13115C9.51088 8.13115 9.39344 8.24858 9.39344 8.39344V8.91803C9.39344 9.06289 9.51088 9.18033 9.65574 9.18033H12.2787C12.4235 9.18033 12.541 9.06289 12.541 8.91803V8.39344C12.541 8.24858 12.4235 8.13115 12.2787 8.13115H9.65574Z" />
    <path fill-rule="evenodd" clip-rule="evenodd" d="M7.81967 13.6393C7.81967 12.6253 8.64171 11.8033 9.65574 11.8033H12.2787C13.2927 11.8033 14.1148 12.6253 14.1148 13.6393V14.1639C14.1148 15.178 13.2927 16 12.2787 16H9.65574C8.64171 16 7.81967 15.178 7.81967 14.1639V13.6393ZM9.65574 13.377C9.51088 13.377 9.39344 13.4945 9.39344 13.6393V14.1639C9.39344 14.3088 9.51088 14.4262 9.65574 14.4262H12.2787C12.4235 14.4262 12.541 14.3088 12.541 14.1639V13.6393C12.541 13.4945 12.4235 13.377 12.2787 13.377H9.65574Z" />
  </g>

  <g id="telegram">
    <path fill-rule="evenodd" clip-rule="evenodd" d="M23.1117 4.49449C23.4296 2.94472 21.9074 1.65683 20.4317 2.227L2.3425 9.21601C0.694517 9.85273 0.621087 12.1572 2.22518 12.8975L6.1645 14.7157L8.03849 21.2746C8.13583 21.6153 8.40618 21.8791 8.74917 21.968C9.09216 22.0568 9.45658 21.9576 9.70712 21.707L12.5938 18.8203L16.6375 21.8531C17.8113 22.7334 19.5019 22.0922 19.7967 20.6549L23.1117 4.49449ZM3.0633 11.0816L21.1525 4.0926L17.8375 20.2531L13.1 16.6999C12.7019 16.4013 12.1448 16.4409 11.7929 16.7928L10.5565 18.0292L10.928 15.9861L18.2071 8.70703C18.5614 8.35278 18.5988 7.79106 18.2947 7.39293C17.9906 6.99479 17.4389 6.88312 17.0039 7.13168L6.95124 12.876L3.0633 11.0816ZM8.17695 14.4791L8.78333 16.6015L9.01614 15.321C9.05253 15.1209 9.14908 14.9366 9.29291 14.7928L11.5128 12.573L8.17695 14.4791Z" />
  </g>

<g id="phone">
  <path d="M16.5562 12.9062L16.1007 13.359C16.1007 13.359 15.0181 14.4355 12.0631 11.4972C9.10812 8.55901 10.1907 7.48257 10.1907 7.48257L10.4775 7.19738C11.1841 6.49484 11.2507 5.36691 10.6342 4.54348L9.37326 2.85908C8.61028 1.83992 7.13596 1.70529 6.26145 2.57483L4.69185 4.13552C4.25823 4.56668 3.96765 5.12559 4.00289 5.74561C4.09304 7.33182 4.81071 10.7447 8.81536 14.7266C13.0621 18.9492 17.0468 19.117 18.6763 18.9651C19.1917 18.9171 19.6399 18.6546 20.0011 18.2954L21.4217 16.883C22.3806 15.9295 22.1102 14.2949 20.8833 13.628L18.9728 12.5894C18.1672 12.1515 17.1858 12.2801 16.5562 12.9062Z" />
</g>

<g id="email">
  <path fill-rule="evenodd" clip-rule="evenodd" d="M3.75 5.25L3 6V18L3.75 18.75H20.25L21 18V6L20.25 5.25H3.75ZM4.5 7.6955V17.25H19.5V7.69525L11.9999 14.5136L4.5 7.6955ZM18.3099 6.75H5.68986L11.9999 12.4864L18.3099 6.75Z" />
</g>

</svg>